# xmcd
#
# Track frame offsets: 
#        150
#        29993
#        61350
#        96918
#        112125
#        131523
#        154660
#        183306
#        210101
#        236044
#        257111
#
# Disc length: 3701 seconds
#
# Revision: 4
# Processed by: cddbd v1.5.1PL0 Copyright (c) Steve Scherf et al.
# Submitted via: ExactAudioCopy v0.95a5
#
DISCID=9c0e730b
DTITLE=Lambchop - Is A Woman
DYEAR=2001
DGENRE=
TTITLE0=The Daily Growl
TTITLE1=The New Cobweb Summer
TTITLE2=My Blue Wave
TTITLE3=I Can Hardly Spell My Name
TTITLE4=Autumn's Vicar
TTITLE5=Flick
TTITLE6=Caterpillar
TTITLE7=D Scott Parsley
TTITLE8=Bugs
TTITLE9=The Old Matchbook Trick
TTITLE10=Is A Woman
EXTD=
EXTT0=
EXTT1=
EXTT2=
EXTT3=
EXTT4=
EXTT5=
EXTT6=
EXTT7=
EXTT8=
EXTT9=
EXTT10=
PLAYORDER=
